<?xml version="1.0" encoding="UTF-8"?>
<svg id="Capa_2" data-name="Capa 2" xmlns="http://www.w3.org/2000/svg" viewBox="0 0 66.45 148.09">
  <defs>
    <style>
      .cls-1 {
        fill: #5391cc;
        stroke-width: 0px;
      }
    </style>
  </defs>
  <g id="Capa_2-2" data-name="Capa 2">
    <g id="Capa_2-2" data-name="Capa 2-2">
      <path class="cls-1" d="M59.43,5.57c-6.12-4.41-12.93-3.46-16.27,2.74-1.98,3.67-3.34,8.01-3.68,12.16-.74,8.84-.81,17.74-.84,26.62-.09,23.43-.05,46.87,0,70.3.01,7.3-1.43,14.16-5.55,20.28-6.42,9.53-17.21,12.95-26.5,8.48-3.22-1.55-5.64-3.8-6.43-7.47-.64-2.97.65-5.88,3.1-6.86,2.51-1.01,5.7-.07,7.03,2.07,1.38,2.22.73,5.24-1.58,7.33-.42.38-.83.78-1.25,1.17,4.73,4.77,13.54,3.39,16.31-2.93,1.84-4.2,3.37-8.92,3.45-13.43.45-25.48.38-50.96.57-76.45.06-8.39-.15-16.83.7-25.15.99-9.67,5.45-17.73,14.54-22.27,6.15-3.07,12.45-2.88,18.49.62,3.32,1.92,4.97,4.88,4.93,8.72-.03,2.66-1.31,4.52-3.92,5.15-2.6.63-4.92-.02-6.26-2.53-1.29-2.41-1-4.72,1-6.68.61-.6,1.3-1.13,2.17-1.87h-.01Z"/>
    </g>
  </g>
</svg>