<?xml version="1.0" encoding="UTF-8"?>
<svg id="Capa_2" data-name="Capa 2" xmlns="http://www.w3.org/2000/svg" viewBox="0 0 399.12 148.09">
  <defs>
    <style>
      .cls-1 {
        fill: #fff;
        stroke-width: 0px;
      }
    </style>
  </defs>
  <g id="Capa_2-2" data-name="Capa 2">
    <path class="cls-1" d="M46.25,23.06c4.4,0,8.48-.08,12.56.08.66.02,1.71.97,1.85,1.64,2.76,13.37,5.43,26.77,8.1,40.16,2.52,12.63,5.04,25.25,7.53,37.88.62,3.14,1.16,6.29,2.29,9.42-.39-29.6-.78-59.2-1.17-88.99h9.18c.06,1.11.17,2.14.17,3.17,0,31.74-.03,63.48.07,95.22,0,2.82-.75,3.82-3.6,3.58-2.81-.24-5.66-.14-8.49-.02-1.73.07-2.39-.65-2.71-2.27-3.9-19.81-7.88-39.61-11.78-59.41-1.74-8.8-3.36-17.62-5.04-26.43-.07-.36-.26-.71-1.09-1.02.48,29.54.96,59.09,1.45,89.08-2.86,0-5.46.08-8.04-.07-.49-.03-1.09-.84-1.37-1.43-.23-.48-.07-1.15-.07-1.74V26.1c0-.86.08-1.72.14-3.05h.02,0Z"/>
    <path class="cls-1" d="M209.05,77.35c-.41-.13-.6-.24-.78-.24-4.11-.1-6.17,1.9-6.17,6v42.04c-2.98,0-5.78.07-8.56-.07-.48-.02-1.06-.87-1.34-1.45-.23-.49-.07-1.15-.07-1.74V26.08c0-.86.09-1.72.16-3.06,8.13.42,16.23-1.14,24,2.11,4.1,1.72,7.06,4.71,8.54,8.78,3.53,9.74,3.77,19.78.75,29.61-1.02,3.32-3.81,6.2-6.18,8.95-1.09,1.27-1.47,2.13-1.17,3.77,2.89,15.63,5.68,31.29,8.49,46.94.08.47.1.95.19,1.96-2.9,0-5.68.09-8.44-.08-.51-.03-1.27-1.08-1.38-1.75-2.41-13.84-4.73-27.7-7.1-41.54-.26-1.52-.65-3.03-.96-4.42,0,0,.02,0,.02,0ZM202.23,70.38c8.16.94,12.05-.94,13.7-7.48,2.13-8.42,2.24-17.05-.22-25.45-1.77-6.05-7.25-8.57-13.48-6.66v39.6h0Z"/>
    <path class="cls-1" d="M25.78,23.18h9.65c.09.84.24,1.58.24,2.32,0,23.24.15,46.49-.14,69.73-.08,6.48-1,13.04-2.37,19.39-1.66,7.71-7.09,11.36-15.24,11.34-8.06-.02-13.62-3.75-15.19-11.41-1.43-6.93-2.46-14.07-2.56-21.13C-.14,70.85.06,48.29.06,25.73c0-.76.11-1.52.18-2.47h10.08v3.43c0,21.58-.11,43.17.09,64.75.06,6.61.87,13.22,1.5,19.82.15,1.61.59,3.44,1.54,4.65,1.09,1.38,2.78,2.7,4.44,3.12,2.2.56,4.12-.97,4.75-3.06,1.09-3.62,2.15-7.33,2.46-11.07.53-6.41.63-12.87.65-19.32.07-19.53.03-39.06.03-58.6v-3.8h0Z"/>
    <path class="cls-1" d="M342.91,34.38c-.46,3.81-1.01,7.62-1.38,11.44-2.43,25.35-4.86,50.7-7.19,76.06-.24,2.59-1.12,3.64-3.78,3.34-2-.22-4.05-.04-6.47-.04,4-34.16,7.95-67.93,11.93-101.9h14.43c3.95,33.79,7.9,67.58,11.91,101.87-3.24,0-6.13.11-8.99-.1-.53-.04-1.34-1.29-1.41-2.04-1.14-11.16-2.18-22.34-3.23-33.51-1.68-17.97-3.34-35.95-5.02-53.93-.04-.38-.15-.75-.22-1.13-.2-.02-.4-.04-.6-.07h.02Z"/>
    <path class="cls-1" d="M141.11,125h-14.42c-3.96-33.84-7.91-67.69-11.89-101.76h10.24c2.9,30.7,5.81,61.42,8.72,92.14.16,0,.32-.02.48-.03,3-30.67,6-61.34,9.02-92.14h9.75c-3.97,33.98-7.93,67.81-11.9,101.79Z"/>
    <path class="cls-1" d="M276.83,5.57c-6.12-4.41-12.93-3.46-16.27,2.74-1.98,3.67-3.34,8.01-3.68,12.16-.74,8.84-.81,17.74-.84,26.62-.09,23.43-.05,46.87,0,70.3.01,7.3-1.43,14.16-5.55,20.28-6.42,9.53-17.21,12.95-26.5,8.48-3.22-1.55-5.64-3.8-6.43-7.47-.64-2.97.65-5.88,3.1-6.86,2.51-1.01,5.7-.07,7.03,2.07,1.38,2.22.73,5.24-1.58,7.33-.42.38-.83.78-1.25,1.17,4.73,4.77,13.54,3.39,16.31-2.93,1.84-4.2,3.37-8.92,3.45-13.43.45-25.48.38-50.96.57-76.45.06-8.39-.15-16.83.7-25.15.99-9.67,5.45-17.73,14.54-22.27,6.15-3.07,12.45-2.88,18.49.62,3.32,1.92,4.97,4.88,4.93,8.72-.03,2.66-1.31,4.52-3.92,5.15-2.6.63-4.92-.02-6.26-2.53-1.29-2.41-1-4.72,1-6.68.61-.6,1.3-1.13,2.17-1.87h-.01Z"/>
    <path class="cls-1" d="M399.12,54.91c-3.05,0-5.1-.12-7.12.03-2.16.17-2.81-.57-2.86-2.78-.13-4.96-.48-9.92-1.05-14.85-.23-1.97-1-3.99-1.99-5.73-1.85-3.26-5.84-3.55-7.52-.26-1.44,2.81-2.22,6.23-2.32,9.42-.28,9.54,3.28,18.08,7.71,26.34,3.77,7.03,7.79,13.98,10.9,21.31,3.53,8.33,5.32,17.15,2.9,26.26-1.93,7.29-7.3,11.35-14.74,11.31-7.3-.04-12.92-4.01-14.41-11.28-1.2-5.87-1.32-11.96-1.91-17.96-.14-1.43.43-2.04,1.98-2.14,6.95-.46,6.75-.49,7.27,6.33.36,4.73,1.19,9.44,2.13,14.09.5,2.44,2.22,4.19,4.99,4.12,2.91-.07,4.28-2.1,4.99-4.59,2.36-8.34.57-16.39-2.79-23.92-3.76-8.44-8.55-16.41-12.66-24.7-4.71-9.51-7.5-19.51-5.84-30.25,1.62-10.5,12.1-16.23,21.87-12.12,4.81,2.02,7.16,6.21,8.03,10.85,1.23,6.56,1.61,13.28,2.42,20.52,0,0,.02,0,.02,0Z"/>
    <path class="cls-1" d="M160.15,23.21h25.1v7.01c-4.36,0-8.53.11-12.69-.05-2.2-.08-2.84.65-2.82,2.83.1,10.74.09,21.48,0,32.22-.02,2.05.67,2.76,2.69,2.7,3.68-.11,7.36-.03,11.16-.03v7.49c-3.87,0-7.63.06-11.4-.03-1.68-.04-2.47.4-2.46,2.27.06,12.99.04,25.97.05,38.96,0,.37.12.75.25,1.49h15.21v6.88h-25.11V23.21h.02,0Z"/>
    <path class="cls-1" d="M325.43,23.36v6.87c-1.33,0-2.47-.03-3.62,0-2.9.09-7.06-.89-8.37.61-1.55,1.76-.75,5.69-.75,8.68-.03,27.15-.02,54.3-.02,81.46,0,2.8-1.44,4.2-4.31,4.2h-5.6c-.07-1.4-.19-2.62-.19-3.84-.01-29.2-.05-58.41.06-87.61.01-2.83-.76-3.83-3.58-3.54-2.22.23-4.5-.09-6.73.08-2.28.18-3-.77-2.76-2.88.09-.77.07-1.57,0-2.34-.12-1.56.61-2.01,2.09-2.01,10.93.05,21.86.03,32.8.05.27,0,.54.14.97.27,0,0,.01,0,.01,0Z"/>
    <path class="cls-1" d="M107.48,124.89c-.51.14-.69.23-.88.24-5.95.36-8.92-2.42-8.92-8.33V23.24h9.8s0,101.65,0,101.65Z"/>
    <path class="cls-1" d="M273.6,23.2h9.76v101.95c-2.9,0-5.7.07-8.48-.07-.49-.02-1.07-.86-1.35-1.44-.23-.48-.06-1.15-.06-1.74V26.13c0-.86.07-1.73.13-2.94h0Z"/>
  </g>
</svg>